<svg width="144" height="85" viewBox="0 0 144 85" fill="none" xmlns="http://www.w3.org/2000/svg">
<g clip-path="url(#clip0_3_31)">
<path d="M3.71362 36.3601L9.5807 1.79577L38.9307 0L21.084 81.6941L15.9491 84.9504L30.4856 4.79675L31.7459 5.26761L13.879 6.49771L15.9491 4.79675L10.7816 33.5099L3.71362 36.3601Z" fill="#5274ED"/>
<path d="M48.3975 39.7465C46.3658 39.9088 38.4449 40.4301 36.8971 39.8662C35.4251 39.1 40.56 37.3377 39.824 35.744C39.0879 34.1197 38.8273 32.0357 39.0419 29.4919C39.2259 26.5497 39.824 23.9906 40.836 21.8146C41.8787 19.6386 43.2894 17.953 45.0681 16.7577C46.8469 15.5624 48.9476 14.9648 51.3704 14.9648C53.3024 14.9648 55.0812 15.4092 56.7066 16.298C58.3319 17.1561 59.6353 18.4127 60.6167 20.0677C61.5981 21.692 62.0887 23.6841 62.0887 26.044C62.0887 28.0974 61.7361 30.0129 61.0307 31.7905C60.3253 33.5374 59.39 35.0918 58.0866 36.3417C56.7832 37.5915 55.3457 38.1901 53.6685 38.7887C52.2731 39.2868 51.3924 39.507 48.3975 39.7465ZM30.6677 46.7419L37.3763 16.298L44.2861 15.3326L43.2741 20.2515L41.71 27.607L40.744 34.9625L37.9753 46.7419H30.6677ZM47.5522 34.5028C48.9936 34.5028 50.251 34.1657 51.3244 33.4914C52.3977 32.7865 53.2411 31.8364 53.8545 30.6412C54.4985 29.4153 54.8205 27.9901 54.8205 26.3658C54.8205 24.6802 54.3298 23.347 53.3484 22.3662C52.3671 21.3855 50.9717 20.8951 49.1623 20.8951C47.7822 20.8951 46.5402 21.2476 45.4362 21.9525C44.3321 22.6268 43.4734 23.5768 42.8601 24.8028C42.2467 25.998 41.94 27.4078 41.94 29.0322C41.94 30.7178 42.4307 32.051 43.4121 33.0317C44.3935 34.0124 45.7735 34.5028 47.5522 34.5028Z" fill="#5274ED"/>
<path d="M61.0308 39.7161L66.6065 14.0071L73.4799 13.5282L69.841 30.0493L84.759 12.8099L92.0033 12.4507L85.8937 39.8662H79.9039L83.0943 24.6373L68.1438 39.7161H61.0308Z" fill="#5274ED"/>
<path d="M87.9302 39.8662L93.92 12.2113L100.389 11.8521L97.5138 25.3803L108.981 24.6373L112.009 11.1338L118.358 10.7747L112.009 39.8662H105.78L107.936 29.8099L96.4357 30.5282L94.3992 39.7161L87.9302 39.8662Z" fill="#5274ED"/>
<path d="M122.791 40.0898L128.541 13.8716L129.38 14.7096L119.434 15.3082L120.272 10.7589L143.036 9.44199L141.958 16.4205L132.015 14.7096L134.531 13.3927L128.781 39.9701L122.791 40.0898Z" fill="#5274ED"/>
<path d="M1.31775 41.6124L140.64 42.1408L140.281 44.5352L0 47.9575L1.31775 41.6124Z" fill="#5274ED"/>
<path d="M51.0284 13.6927L47.6778 13.8491C47.1491 13.8738 46.7405 14.3222 46.7652 14.8506L46.8066 15.735C46.8313 16.2634 47.2799 16.6717 47.8086 16.647L51.1592 16.4905C51.688 16.4658 52.0965 16.0175 52.0718 15.4891L52.0305 14.6047C52.0058 14.0763 51.5571 13.668 51.0284 13.6927Z" fill="#5274ED"/>
<path d="M37.8555 18.3871C43.3927 17.4731 52.1112 16.2321 55.4219 18.0899" stroke="#5274ED" stroke-width="4.62236"/>
<path d="M46.4807 23.0561C48.4772 22.3778 52.7101 22.0745 53.6685 26.2885" stroke="#5274ED" stroke-width="1.28399"/>
<path d="M57.9116 30.9108C57.0785 33.1339 54.6951 34.9853 51.7311 36.0359C48.7815 37.0815 45.4866 37.2482 43.0555 36.3381C40.713 35.4615 39.3931 33.5654 38.8712 31.2197C38.3444 28.8507 38.6523 26.073 39.5627 23.6435C40.3984 21.4134 42.6002 19.7032 45.3496 18.7931C48.0895 17.886 51.2073 17.8342 53.6651 18.7541C58.3915 20.523 59.7344 26.0466 57.9116 30.9108Z" stroke="white" stroke-width="1.79758"/>
</g>
<defs>
<clipPath id="clip0_3_31">
<rect width="143.036" height="85" fill="white"/>
</clipPath>
</defs>
</svg>
