<svg width="38" height="29" viewBox="0 0 38 29" fill="none" xmlns="http://www.w3.org/2000/svg">
<path d="M6.31795 4.44828H32.7874C34.8238 4.44828 36.1087 6.63871 35.115 8.41624L28.8431 19.6346C28.3718 20.4777 27.4814 21 26.5155 21H13.2219C12.0415 21 11.0015 20.2239 10.6655 19.0923L6.31795 4.44828ZM6.31795 4.44828L5.77681 2.82386C5.41398 1.73471 4.39496 1 3.24696 1C1.81847 1 0.306076 1 0 1" stroke="black"/>
<path d="M16.5 26.5C16.5 27.6046 15.6046 28.5 14.5 28.5C13.3954 28.5 12.5 27.6046 12.5 26.5C12.5 25.3954 13.3954 24.5 14.5 24.5C15.6046 24.5 16.5 25.3954 16.5 26.5ZM27.5 26.5C27.5 27.6046 26.6046 28.5 25.5 28.5C24.3954 28.5 23.5 27.6046 23.5 26.5C23.5 25.3954 24.3954 24.5 25.5 24.5C26.6046 24.5 27.5 25.3954 27.5 26.5Z" fill="white" stroke="black"/>
</svg>
